{
  "accessors": [
    {
      "bufferView": 3,
      "componentType": 5126,
      "count": 3660,
      "max": [
        56.928619384765625,
        554.7528686523438,
        83.5357437133789
      ],
      "min": [
        -56.04536056518555,
        5.4854736328125,
        -53.90378189086914
      ],
      "type": "VEC3"
    },
    {
      "bufferView": 3,
      "byteOffset": 43920,
      "componentType": 5126,
      "count": 3660,
      "max": [
        1.0,
        1.0,
        1.0
      ],
      "min": [
        -1.0,
        -1.0,
        -1.0
      ],
      "type": "VEC3"
    },
    {
      "bufferView": 4,
      "componentType": 5126,
      "count": 3660,
      "max": [
        1.0,
        0.9781941175460815,
        1.0,
        1.0
      ],
      "min": [
        -1.0,
        -0.9857932925224304,
        -1.0,
        1.0
      ],
      "type": "VEC4"
    },
    {
      "bufferView": 2,
      "componentType": 5126,
      "count": 3660,
      "max": [
        0.9949489235877991,
        0.9964895248413086
      ],
      "min": [
        0.0033551871310919523,
        0.003529480192810297
      ],
      "type": "VEC2"
    },
    {
      "bufferView": 1,
      "componentType": 5125,
      "count": 10173,
      "type": "SCALAR"
    },
    {
      "bufferView": 5,
      "componentType": 5126,
      "count": 3,
      "max": [
        1.0,
        0.0,
        0.0,
        0.0,
        0.0,
        1.0,
        0.7166755795478821,
        0.0,
        0.0,
        0.0,
        1.0,
        0.0,
        0.0,
        0.0,
        0.0,
        1.0
      ],
      "min": [
        0.7166755795478821,
        0.0,
        0.0,
        0.0,
        0.0,
        4.388372151478368e-17,
        0.0,
        0.0,
        0.0,
        -0.7260450124740601,
        4.445743413531576e-17,
        0.0,
        0.0,
        -1.9648940067780278e-14,
        -320.89154052734375,
        1.0
      ],
      "type": "MAT4"
    },
    {
      "bufferView": 0,
      "componentType": 5123,
      "count": 3660,
      "type": "VEC4"
    },
    {
      "bufferView": 4,
      "byteOffset": 58560,
      "componentType": 5126,
      "count": 3660,
      "max": [
        1.0,
        0.0,
        0.0,
        0.0
      ],
      "min": [
        1.0,
        0.0,
        0.0,
        0.0
      ],
      "type": "VEC4"
    },
    {
      "bufferView": 6,
      "componentType": 5126,
      "count": 301,
      "max": [
        10.0
      ],
      "min": [
        0.0
      ],
      "type": "SCALAR"
    },
    {
      "bufferView": 7,
      "componentType": 5126,
      "count": 301,
      "max": [
        0.4967309236526489,
        0.7071017622947693,
        0.7071018218994141,
        0.7071067690849304
      ],
      "min": [
        -0.7071068286895752,
        -0.49802857637405396,
        -0.49802860617637634,
        -0.49673086404800415
      ],
      "type": "VEC4"
    }
  ],
  "animations": [
    {
      "channels": [
        {
          "sampler": 0,
          "target": {
            "node": 9,
            "path": "rotation"
          }
        }
      ],
      "name": "Take 001",
      "samplers": [
        {
          "input": 8,
          "interpolation": "LINEAR",
          "output": 9
        }
      ]
    }
  ],
  "asset": {
    "extras": {
      "author": "Xavier Toomer (https://sketchfab.com/xtoomer)",
      "license": "CC-BY-4.0 (http://creativecommons.org/licenses/by/4.0/)",
      "source": "https://sketchfab.com/3d-models/lighthouse-120c83f406f94f97b2f1a7443e64da13",
      "title": "Lighthouse"
    },
    "generator": "Sketchfab-12.68.0",
    "version": "2.0"
  },
  "bufferViews": [
    {
      "buffer": 0,
      "byteLength": 29280,
      "byteStride": 8,
      "name": "shortBufferViews",
      "target": 34962
    },
    {
      "buffer": 0,
      "byteLength": 40692,
      "byteOffset": 29280,
      "name": "floatBufferViews",
      "target": 34963
    },
    {
      "buffer": 0,
      "byteLength": 29280,
      "byteOffset": 69972,
      "byteStride": 8,
      "name": "floatBufferViews",
      "target": 34962
    },
    {
      "buffer": 0,
      "byteLength": 87840,
      "byteOffset": 99252,
      "byteStride": 12,
      "name": "floatBufferViews",
      "target": 34962
    },
    {
      "buffer": 0,
      "byteLength": 117120,
      "byteOffset": 187092,
      "byteStride": 16,
      "name": "floatBufferViews",
      "target": 34962
    },
    {
      "buffer": 0,
      "byteLength": 192,
      "byteOffset": 304212,
      "name": "floatBufferViews"
    },
    {
      "buffer": 0,
      "byteLength": 1204,
      "byteOffset": 304404,
      "name": "floatBufferViews"
    },
    {
      "buffer": 0,
      "byteLength": 4816,
      "byteOffset": 305608,
      "byteStride": 16,
      "name": "floatBufferViews"
    }
  ],
  "buffers": [
    {
      "byteLength": 310424,
      "uri": "scene.bin"
    }
  ],
  "images": [
    {
      "uri": "textures/Scene_-_Root_baseColor.png"
    },
    {
      "uri": "textures/Scene_-_Root_metallicRoughness.png"
    },
    {
      "uri": "textures/Scene_-_Root_emissive.png"
    },
    {
      "uri": "textures/Scene_-_Root_normal.png"
    }
  ],
  "materials": [
    {
      "alphaMode": "BLEND",
      "doubleSided": true,
      "emissiveFactor": [
        1.0,
        1.0,
        1.0
      ],
      "emissiveTexture": {
        "index": 2
      },
      "name": "Scene_-_Root",
      "normalTexture": {
        "index": 3
      },
      "occlusionTexture": {
        "index": 1
      },
      "pbrMetallicRoughness": {
        "baseColorTexture": {
          "index": 0
        },
        "metallicRoughnessTexture": {
          "index": 1
        }
      }
    }
  ],
  "meshes": [
    {
      "name": "Lighthouse_low__0",
      "primitives": [
        {
          "attributes": {
            "JOINTS_0": 6,
            "NORMAL": 1,
            "POSITION": 0,
            "TANGENT": 2,
            "TEXCOORD_0": 3,
            "WEIGHTS_0": 7
          },
          "indices": 4,
          "material": 0,
          "mode": 4
        }
      ]
    }
  ],
  "nodes": [
    {
      "children": [
        1
      ],
      "matrix": [
        1.0,
        0.0,
        0.0,
        0.0,
        0.0,
        2.220446049250313e-16,
        -1.0,
        0.0,
        0.0,
        1.0,
        2.220446049250313e-16,
        0.0,
        0.0,
        0.0,
        0.0,
        1.0
      ],
      "name": "Sketchfab_model"
    },
    {
      "children": [
        2
      ],
      "matrix": [
        1.0,
        0.0,
        0.0,
        0.0,
        0.0,
        0.0,
        1.0,
        0.0,
        0.0,
        -1.0,
        0.0,
        0.0,
        0.0,
        0.0,
        0.0,
        1.0
      ],
      "name": "ccdd8dbb7f05446bbd0aedb79901dc00.fbx"
    },
    {
      "children": [
        3
      ],
      "name": "Object_2"
    },
    {
      "children": [
        4
      ],
      "name": "RootNode"
    },
    {
      "children": [
        5,
        7,
        6,
        10
      ],
      "name": "Object_4"
    },
    {
      "children": [
        8,
        9
      ],
      "name": "_rootJoint"
    },
    {
      "matrix": [
        0.7166755795478821,
        0.0,
        0.0,
        0.0,
        0.0,
        4.38837227260194e-17,
        -0.7166755795478821,
        0.0,
        0.0,
        0.7260450124740601,
        4.445743502816289e-17,
        0.0,
        0.0,
        305.9857634148975,
        2.1411246443045223e-13,
        1.0
      ],
      "name": "Object_6"
    },
    {
      "mesh": 0,
      "name": "Object_7",
      "skin": 0
    },
    {
      "name": "Lighthouse Stagnant_00",
      "rotation": [
        -0.7071068286895752,
        -0.0,
        0.0,
        0.7071068286895752
      ],
      "translation": [
        -256.81396484375,
        0.0,
        0.0
      ]
    },
    {
      "name": "Lighthouse Light_01",
      "rotation": [
        -0.7071068286895752,
        0.0,
        0.0,
        0.7071068286895752
      ],
      "translation": [
        -256.81396484375,
        320.89154052734375,
        0.0
      ]
    },
    {
      "name": "Lighthouse_low",
      "rotation": [
        -0.7071068286895752,
        -0.0,
        0.0,
        0.7071068286895752
      ],
      "scale": [
        0.7166759967803955,
        0.7166759967803955,
        0.7260450124740601
      ],
      "translation": [
        -256.81396484375,
        0.0,
        1.9537624014291655e-13
      ]
    }
  ],
  "samplers": [
    {
      "magFilter": 9729,
      "minFilter": 9987,
      "wrapS": 10497,
      "wrapT": 10497
    }
  ],
  "scene": 0,
  "scenes": [
    {
      "name": "Sketchfab_Scene",
      "nodes": [
        0
      ]
    }
  ],
  "skins": [
    {
      "inverseBindMatrices": 5,
      "joints": [
        5,
        8,
        9
      ],
      "skeleton": 5
    }
  ],
  "textures": [
    {
      "sampler": 0,
      "source": 0
    },
    {
      "sampler": 0,
      "source": 1
    },
    {
      "sampler": 0,
      "source": 2
    },
    {
      "sampler": 0,
      "source": 3
    }
  ]
}
